<?xml version="1.0" encoding="UTF-8" standalone="no"?>
<!-- Created with Inkscape (http://www.inkscape.org/) -->

<svg
   xmlns:dc="http://purl.org/dc/elements/1.1/"
   xmlns:cc="http://creativecommons.org/ns#"
   xmlns:rdf="http://www.w3.org/1999/02/22-rdf-syntax-ns#"
   xmlns:svg="http://www.w3.org/2000/svg"
   xmlns="http://www.w3.org/2000/svg"
   version="1.1"
   width="423.08466"
   height="114.5107"
   id="svg4491">
  <defs
     id="defs4493" />
  <metadata
     id="metadata4496">
    <rdf:RDF>
      <cc:Work
         rdf:about="">
        <dc:format>image/svg+xml</dc:format>
        <dc:type
           rdf:resource="http://purl.org/dc/dcmitype/StillImage" />
        <dc:title></dc:title>
      </cc:Work>
    </rdf:RDF>
  </metadata>
  <g
     transform="translate(-221.97172,-411.62445)"
     id="layer1">
    <g
       transform="translate(174.94262,35.803336)"
       id="g4455">
      <path
         d="m 343.27319,431.6103 c 3.3481,9e-5 5.88067,2.74727 7.59774,8.24162 3.43394,10.30207 5.88067,15.45306 7.34018,15.45301 1.11599,5e-5 1.82855,-1.30487 3.03053,-3.02194 24.12379,-38.63247 88.16048,-73.54483 90.4645,-75.0899 1.85016,-1.44594 3.53877,-1.39828 6.087,-1.35829 2.74706,1.7e-4 7.56354,2.70573 8.591,4.05903 1.53655,2.22304 2.60201,1.47116 3.72963,9.1934 -1.57854,4.42192 -2.72797,4.70681 -3.7931,5.76425 -39.19924,27.20769 -73.46911,46.54582 -101.79955,90.84441 -1.97465,3.09064 -6.00959,4.63595 -12.1049,4.63592 -6.18125,3e-5 -9.8299,-0.25753 -10.94587,-0.77267 -2.91896,-1.28771 -6.35297,-7.85524 -10.30203,-19.7026 -4.46425,-13.13503 -6.69637,-21.37663 -6.69632,-24.72484 -5e-5,-3.60563 3.00472,-7.08256 9.01426,-10.43079 3.69152,-2.06034 6.95382,-3.09052 9.78693,-3.09061"
         id="path2510-8"
         style="font-size:12px;font-style:normal;font-variant:normal;font-weight:normal;font-stretch:normal;fill:#00a200;fill-opacity:1;stroke:none;display:inline;font-family:Webdings;-inkscape-font-specification:Webdings" />
      <path
         d="m 119.38066,446.38651 27.91407,8.4375 c -1.87511,7.82815 -4.82823,14.3672 -8.85938,19.61718 -4.03134,5.25001 -9.04696,9.21094 -15.04687,11.88282 -5.9532,2.67187 -13.54695,4.00781 -22.78125,4.00781 -11.203177,0 -20.36723,-1.61719 -27.49219,-4.85156 -7.078151,-3.28125 -13.195332,-9.02343 -18.351563,-17.22657 -5.156259,-8.20309 -7.734381,-18.70308 -7.734375,-31.5 -6e-6,-17.06243 4.523426,-30.16398 13.570313,-39.30468 9.09372,-9.1874 21.937457,-13.78115 38.53125,-13.78125 12.984305,1e-4 23.179605,2.6251 30.585935,7.875 7.45303,5.25009 12.98427,13.31258 16.59375,24.1875 l -28.125,6.25781 c -0.98445,-3.14056 -2.0157,-5.43743 -3.09375,-6.89063 -1.78132,-2.43742 -3.96101,-4.31242 -6.53906,-5.625 -2.57819,-1.31242 -5.461,-1.96867 -8.648438,-1.96875 -7.218802,8e-5 -12.750047,2.90633 -16.59375,8.71875 -2.90629,4.31257 -4.359413,11.086 -4.359375,20.32032 -3.8e-5,11.43754 1.734335,19.28909 5.203125,23.55468 3.468703,4.21878 8.343698,6.32815 14.625,6.32813 6.093688,2e-5 10.687428,-1.71092 13.781248,-5.13281 3.14055,-3.42185 5.41399,-8.39059 6.82031,-14.90625"
         id="path4562"
         style="font-size:144px;font-style:normal;font-variant:normal;font-weight:normal;font-stretch:normal;text-align:start;line-height:125%;letter-spacing:0px;word-spacing:0px;writing-mode:lr-tb;text-anchor:start;fill:#0099ff;fill-opacity:1;stroke:none;font-family:Arial Black;-inkscape-font-specification:'Arial Black,'" />
      <path
         d="m 152.5188,387.25369 52.94531,0 c 11.53118,1.1e-4 20.15617,2.74229 25.875,8.22657 5.76553,5.48446 8.64834,13.28914 8.64844,23.41406 -1e-4,10.40631 -3.14072,18.53911 -9.42188,24.39844 -6.23445,5.85941 -15.77351,8.7891 -28.61718,8.78906 l -17.4375,0 0,38.25 -31.99219,0 0,-103.07813 m 31.99219,43.94532 7.80468,0 c 6.14057,5e-5 10.45307,-1.05463 12.9375,-3.16407 2.48431,-2.15618 3.7265,-4.89837 3.72657,-8.22656 -7e-5,-3.2343 -1.07819,-5.97649 -3.23438,-8.22656 -2.15631,-2.24992 -6.21099,-3.37492 -12.16406,-3.375 l -9.07031,0 0,22.99219"
         id="path4565"
         style="font-size:144px;font-style:normal;font-variant:normal;font-weight:normal;font-stretch:normal;text-align:start;line-height:125%;letter-spacing:0px;word-spacing:0px;writing-mode:lr-tb;text-anchor:start;fill:#ff8000;fill-opacity:1;stroke:none;font-family:Arial Black;-inkscape-font-specification:'Arial Black,'" />
      <path
         d="m 294.49176,473.31619 -36.28125,0 -4.99219,17.01563 -32.55468,0 38.74218,-103.07813 34.73438,0 38.74219,103.07813 -33.32813,0 -5.0625,-17.01563 m -6.67969,-22.28906 -11.39062,-37.05469 -11.32031,37.05469 22.71093,0"
         id="path4568"
         style="font-size:144px;font-style:normal;font-variant:normal;font-weight:normal;font-stretch:normal;text-align:start;line-height:125%;letter-spacing:0px;word-spacing:0px;writing-mode:lr-tb;text-anchor:start;fill:#7c877e;fill-opacity:1;stroke:none;font-family:Arial Black;-inkscape-font-specification:'Arial Black,'" />
    </g>
  </g>
</svg>
