<?xml version="1.0" standalone="no"?>
<!DOCTYPE svg PUBLIC "-//W3C//DTD SVG 20010904//EN"
 "http://www.w3.org/TR/2001/REC-SVG-20010904/DTD/svg10.dtd">
<svg version="1.0" xmlns="http://www.w3.org/2000/svg"
 width="425.000000pt" height="416.000000pt" viewBox="0 0 425.000000 416.000000"
 preserveAspectRatio="xMidYMid meet">

<g transform="translate(0.000000,416.000000) scale(0.100000,-0.100000)"
fill="#000000" stroke="none">
<path d="M1880 4154 c-160 -14 -360 -38 -450 -55 -900 -171 -1458 -600 -1427
-1099 6 -90 34 -195 72 -270 13 -25 92 -143 177 -261 84 -119 511 -722 948
-1342 l795 -1127 130 0 130 0 870 1242 c479 682 900 1278 937 1324 122 152
175 277 185 434 9 144 -32 286 -119 416 -244 365 -824 633 -1558 719 -127 16
-587 28 -690 19z m120 -1120 l0 -876 -77 7 c-325 26 -487 51 -687 104 -447
120 -779 317 -919 548 -37 61 -67 159 -67 223 0 112 74 253 193 366 263 252
745 430 1307 483 63 6 131 13 150 14 19 2 50 5 68 5 l32 2 0 -876z m505 855
c672 -66 1235 -315 1423 -629 102 -171 96 -297 -24 -472 -104 -152 -215 -243
-428 -348 -319 -158 -637 -234 -1148 -275 l-78 -7 0 877 0 877 78 -7 c42 -3
122 -11 177 -16z m-1440 -1832 c222 -67 546 -122 788 -134 85 -4 140 -10 143
-17 2 -6 3 -339 2 -741 l-3 -729 -601 849 c-330 468 -603 855 -607 862 -4 6
30 -3 75 -21 46 -18 137 -49 203 -69z m1794 -759 c-325 -463 -595 -847 -600
-853 -5 -5 -8 304 -7 730 l3 740 129 7 c331 17 725 96 989 198 40 15 73 26 75
25 2 -2 -263 -383 -589 -847z"/>
</g>
</svg>
