<?xml version="1.0" encoding="UTF-8" standalone="no"?>
<svg
   xmlns:dc="http://purl.org/dc/elements/1.1/"
   xmlns:cc="http://creativecommons.org/ns#"
   xmlns:rdf="http://www.w3.org/1999/02/22-rdf-syntax-ns#"
   xmlns:svg="http://www.w3.org/2000/svg"
   xmlns="http://www.w3.org/2000/svg"
   xmlns:sodipodi="http://sodipodi.sourceforge.net/DTD/sodipodi-0.dtd"
   xmlns:inkscape="http://www.inkscape.org/namespaces/inkscape"
   width="512"
   height="512"
   viewBox="0 0 135.46666 135.46667"
   version="1.1"
   id="svg138"
   sodipodi:docname="goblint.svg"
   inkscape:version="1.0.2 (e86c870879, 2021-01-15)"
   inkscape:export-filename="/home/simmo/Dropbox/goblint/logo/traced/goblint512.png"
   inkscape:export-xdpi="96"
   inkscape:export-ydpi="96">
  <defs
     id="defs132" />
  <sodipodi:namedview
     id="base"
     pagecolor="#ffffff"
     bordercolor="#666666"
     borderopacity="1.0"
     inkscape:pageopacity="0.0"
     inkscape:pageshadow="2"
     inkscape:zoom="1.4"
     inkscape:cx="94.677785"
     inkscape:cy="263.83663"
     inkscape:document-units="px"
     inkscape:current-layer="layer2"
     inkscape:document-rotation="0"
     showgrid="false"
     units="px"
     inkscape:pagecheckerboard="true"
     inkscape:window-width="1920"
     inkscape:window-height="1056"
     inkscape:window-x="0"
     inkscape:window-y="0"
     inkscape:window-maximized="1"
     inkscape:snap-page="false" />
  <metadata
     id="metadata135">
    <rdf:RDF>
      <cc:Work
         rdf:about="">
        <dc:format>image/svg+xml</dc:format>
        <dc:type
           rdf:resource="http://purl.org/dc/dcmitype/StillImage" />
        <dc:title />
      </cc:Work>
    </rdf:RDF>
  </metadata>
  <g
     inkscape:groupmode="layer"
     id="layer2"
     inkscape:label="Layer 2"
     style="display:inline;opacity:1;mix-blend-mode:normal">
    <path
       id="path1308"
       style="fill:#003bbd;fill-opacity:1;stroke-width:0.529166"
       d="M 67.561766,5.4321943e-5 A 67.733327,67.733327 0 0 0 0,67.733387 67.733327,67.733327 0 0 0 67.733333,135.46672 67.733327,67.733327 0 0 0 135.46667,67.733387 67.733327,67.733327 0 0 0 134.54683,56.60952 l -44.293942,0.01963 c -9.303592,0 -17.165913,6.895946 -18.380271,16.119951 -1.214363,9.223999 4.598416,17.906841 13.581597,20.327439 6.038617,1.627156 4.142459,8.62213 -0.747242,8.88215 C 69.524662,102.76604 38.217243,88.772445 39.032243,73.140809 39.332227,67.387158 64.49697,52.1277 84.21398,49.695211 99.506547,47.808566 117.82838,38.638886 126.43156,33.934934 A 67.733327,67.733327 0 0 0 67.733333,5.4321943e-5 a 67.733327,67.733327 0 0 0 -0.171567,0 z" />
  </g>
</svg>
