<?xml version="1.0" encoding="UTF-8" standalone="no"?>
<!-- Created with Inkscape (http://www.inkscape.org/) -->

<svg
   width="84.105621mm"
   height="92.718849mm"
   viewBox="0 0 84.105622 92.718849"
   version="1.1"
   id="svg1"
   xml:space="preserve"
   inkscape:version="1.3.2 (091e20e, 2023-11-25, custom)"
   sodipodi:docname="ultimate-logo.svg"
   inkscape:export-filename="ultimate-logo.png"
   inkscape:export-xdpi="300"
   inkscape:export-ydpi="300"
   xmlns:inkscape="http://www.inkscape.org/namespaces/inkscape"
   xmlns:sodipodi="http://sodipodi.sourceforge.net/DTD/sodipodi-0.dtd"
   xmlns="http://www.w3.org/2000/svg"
   xmlns:svg="http://www.w3.org/2000/svg"
   xmlns:rdf="http://www.w3.org/1999/02/22-rdf-syntax-ns#"
   xmlns:cc="http://creativecommons.org/ns#"
   xmlns:dc="http://purl.org/dc/elements/1.1/"><title
     id="title199">Ultimate Logo</title><sodipodi:namedview
     id="namedview1"
     pagecolor="#ffffff"
     bordercolor="#666666"
     borderopacity="1.0"
     inkscape:showpageshadow="2"
     inkscape:pageopacity="0.0"
     inkscape:pagecheckerboard="false"
     inkscape:deskcolor="#d1d1d1"
     inkscape:document-units="mm"
     inkscape:zoom="2.0888418"
     inkscape:cx="91.916966"
     inkscape:cy="152.95558"
     inkscape:window-width="2560"
     inkscape:window-height="1369"
     inkscape:window-x="-8"
     inkscape:window-y="-8"
     inkscape:window-maximized="1"
     inkscape:current-layer="layer2"
     inkscape:clip-to-page="true"
     inkscape:export-bgcolor="#ffffffff" /><defs
     id="defs1"><inkscape:path-effect
       effect="offset"
       id="path-effect7"
       is_visible="true"
       lpeversion="1.2"
       linejoin_type="miter"
       unit="mm"
       offset="3.5"
       miter_limit="4"
       attempt_force_join="false"
       update_on_knot_move="true" /><inkscape:path-effect
       effect="fillet_chamfer"
       id="path-effect4"
       is_visible="true"
       lpeversion="1"
       nodesatellites_param="F,0,0,1,0,0.5,0,1 @ F,0,0,1,0,0.5,0,1 @ F,0,0,1,0,0.5,0,1 @ F,0,0,1,0,0.5,0,1 @ F,0,0,1,0,0.5,0,1 @ F,0,0,1,0,0.5,0,1 @ F,0,0,1,0,0.5,0,1 @ F,0,0,1,0,0.5,0,1 @ F,0,0,1,0,0.5,0,1 @ F,0,0,1,0,0.5,0,1 @ F,0,0,1,0,0.5,0,1 @ F,0,0,1,0,0.5,0,1"
       radius="0.5"
       unit="mm"
       method="auto"
       mode="F"
       chamfer_steps="1"
       flexible="false"
       use_knot_distance="true"
       apply_no_radius="true"
       apply_with_radius="true"
       only_selected="false"
       hide_knots="false" /><inkscape:path-effect
       effect="mirror_symmetry"
       start_point="100,105.1"
       end_point="100,182.1"
       center_point="100,143.6"
       id="path-effect2"
       is_visible="true"
       lpeversion="1.2"
       lpesatellites=""
       mode="free"
       discard_orig_path="false"
       fuse_paths="true"
       oposite_fuse="false"
       split_items="false"
       split_open="false"
       link_styles="false" /><inkscape:path-effect
       effect="mirror_symmetry"
       start_point="40.1,24.8"
       end_point="40.1,62.1"
       center_point="40.1,43.45"
       id="path-effect180"
       is_visible="true"
       lpeversion="1.2"
       lpesatellites=""
       mode="free"
       discard_orig_path="false"
       fuse_paths="true"
       oposite_fuse="false"
       split_items="false"
       split_open="false"
       link_styles="false" /><inkscape:path-effect
       effect="mirror_symmetry"
       start_point="40.1,24.8"
       end_point="40.1,62.1"
       center_point="40.1,43.45"
       id="path-effect177"
       is_visible="true"
       lpeversion="1.2"
       lpesatellites=""
       mode="free"
       discard_orig_path="false"
       fuse_paths="true"
       oposite_fuse="false"
       split_items="false"
       split_open="false"
       link_styles="false" /><inkscape:path-effect
       effect="fillet_chamfer"
       id="path-effect14"
       is_visible="true"
       lpeversion="1"
       nodesatellites_param="F,0,0,1,0,0.5,0,1 @ F,0,0,1,0,0.5,0,1 @ F,0,0,1,0,0.5,0,1 @ F,0,0,1,0,0.5,0,1 @ F,0,0,1,0,0.5,0,1 @ F,0,0,1,0,0.5,0,1 @ F,0,0,1,0,0.5,0,1 @ F,0,0,1,0,0.5,0,1 @ F,0,0,1,0,0.5,0,1 @ F,0,0,1,0,0.5,0,1 @ F,0,0,1,0,0.5,0,1 @ F,0,0,1,0,0.5,0,1"
       radius="0.5"
       unit="mm"
       method="auto"
       mode="F"
       chamfer_steps="1"
       flexible="false"
       use_knot_distance="true"
       apply_no_radius="true"
       apply_with_radius="true"
       only_selected="false"
       hide_knots="false" /><inkscape:path-effect
       effect="mirror_symmetry"
       start_point="100,105.1"
       end_point="100,182.1"
       center_point="100,143.6"
       id="path-effect12"
       is_visible="true"
       lpeversion="1.2"
       lpesatellites=""
       mode="free"
       discard_orig_path="false"
       fuse_paths="true"
       oposite_fuse="false"
       split_items="false"
       split_open="false"
       link_styles="false" /><inkscape:path-effect
       effect="fillet_chamfer"
       id="path-effect10"
       is_visible="true"
       lpeversion="1"
       nodesatellites_param="F,0,0,1,0,0.5,0,1 @ F,0,0,1,0,0.5,0,1 @ F,0,0,1,0,0.5,0,1 @ F,0,0,1,0,0.5,0,1 @ F,0,0,1,0,0.5,0,1 @ F,0,0,1,0,0.5,0,1 @ F,0,0,1,0,0.5,0,1 @ F,0,0,1,0,0.5,0,1 @ F,0,0,1,0,0.5,0,1 @ F,0,0,1,0,0.5,0,1 @ F,0,0,1,0,0.5,0,1 @ F,0,0,1,0,0.5,0,1"
       radius="0.5"
       unit="mm"
       method="auto"
       mode="F"
       chamfer_steps="1"
       flexible="false"
       use_knot_distance="true"
       apply_no_radius="true"
       apply_with_radius="true"
       only_selected="false"
       hide_knots="false" /><inkscape:path-effect
       effect="mirror_symmetry"
       start_point="100,105.1"
       end_point="100,182.1"
       center_point="100,143.6"
       id="path-effect8"
       is_visible="true"
       lpeversion="1.2"
       lpesatellites=""
       mode="free"
       discard_orig_path="false"
       fuse_paths="true"
       oposite_fuse="false"
       split_items="false"
       split_open="false"
       link_styles="false" /><inkscape:path-effect
       effect="fillet_chamfer"
       id="path-effect6"
       is_visible="true"
       lpeversion="1"
       nodesatellites_param="F,0,0,1,0,0.5,0,1 @ F,0,0,1,0,0.5,0,1 @ F,0,0,1,0,0.5,0,1 @ F,0,0,1,0,0.5,0,1 @ F,0,0,1,0,0.5,0,1 @ F,0,0,1,0,0.5,0,1 @ F,0,0,1,0,0.5,0,1 @ F,0,0,1,0,0.5,0,1 @ F,0,0,1,0,0.5,0,1 @ F,0,0,1,0,0.5,0,1 @ F,0,0,1,0,0.5,0,1 @ F,0,0,1,0,0.5,0,1"
       radius="0.5"
       unit="mm"
       method="auto"
       mode="F"
       chamfer_steps="1"
       flexible="false"
       use_knot_distance="true"
       apply_no_radius="true"
       apply_with_radius="true"
       only_selected="false"
       hide_knots="false" /><inkscape:path-effect
       effect="mirror_symmetry"
       start_point="100,105.1"
       end_point="100,182.1"
       center_point="100,143.6"
       id="path-effect5"
       is_visible="true"
       lpeversion="1.2"
       lpesatellites=""
       mode="free"
       discard_orig_path="false"
       fuse_paths="true"
       oposite_fuse="false"
       split_items="false"
       split_open="false"
       link_styles="false" /><filter
       style="color-interpolation-filters:sRGB"
       inkscape:label="Drop Shadow"
       id="filter48"
       x="-1.0521985"
       y="-0.94296014"
       width="3.1043972"
       height="2.8879754"><feFlood
         result="flood"
         in="SourceGraphic"
         flood-opacity="0.498039"
         flood-color="rgb(0,0,0)"
         id="feFlood47" /><feGaussianBlur
         result="blur"
         in="SourceGraphic"
         stdDeviation="1.700000"
         id="feGaussianBlur47" /><feOffset
         result="offset"
         in="blur"
         dx="0.000000"
         dy="0.000000"
         id="feOffset47" /><feComposite
         result="comp1"
         operator="in"
         in="flood"
         in2="offset"
         id="feComposite47" /><feComposite
         result="fbSourceGraphic"
         operator="over"
         in="SourceGraphic"
         in2="comp1"
         id="feComposite48" /><feColorMatrix
         result="fbSourceGraphicAlpha"
         in="fbSourceGraphic"
         values="0 0 0 -1 0 0 0 0 -1 0 0 0 0 -1 0 0 0 0 1 0"
         id="feColorMatrix174" /><feFlood
         id="feFlood174"
         result="flood"
         in="fbSourceGraphic"
         flood-opacity="0.200000"
         flood-color="rgb(0,0,0)" /><feGaussianBlur
         id="feGaussianBlur174"
         result="blur"
         in="fbSourceGraphic"
         stdDeviation="27.000000" /><feOffset
         id="feOffset174"
         result="offset"
         in="blur"
         dx="0.000000"
         dy="0.000000" /><feComposite
         id="feComposite174"
         result="comp1"
         operator="in"
         in="flood"
         in2="offset" /><feComposite
         id="feComposite175"
         result="comp2"
         operator="over"
         in="fbSourceGraphic"
         in2="comp1" /></filter><filter
       style="color-interpolation-filters:sRGB"
       inkscape:label="Drop Shadow"
       id="filter199"
       x="-0.64765101"
       y="-0.51742627"
       width="2.295302"
       height="2.0348525"><feFlood
         result="flood"
         in="SourceGraphic"
         flood-opacity="0.200000"
         flood-color="rgb(0,0,0)"
         id="feFlood198" /><feGaussianBlur
         result="blur"
         in="SourceGraphic"
         stdDeviation="7.000000"
         id="feGaussianBlur198" /><feOffset
         result="offset"
         in="blur"
         dx="0.000000"
         dy="0.000000"
         id="feOffset198" /><feComposite
         result="comp1"
         operator="in"
         in="flood"
         in2="offset"
         id="feComposite198" /><feComposite
         result="comp2"
         operator="over"
         in="SourceGraphic"
         in2="comp1"
         id="feComposite199" /></filter><clipPath
       clipPathUnits="userSpaceOnUse"
       id="clipPath1"><rect
         style="fill:#ffffff;stroke-width:0.264583"
         id="rect2"
         width="85.803986"
         height="92.790115"
         x="8.2400484"
         y="8.5983114" /></clipPath><clipPath
       clipPathUnits="userSpaceOnUse"
       id="clipPath3"><rect
         style="fill:#ffffff;stroke-width:0.264583"
         id="rect4"
         width="84.105621"
         height="92.718849"
         x="8.3667135"
         y="8.7249765" /></clipPath></defs><g
     id="logo"
     clip-path="url(#clipPath3)"
     transform="translate(-8.3667135,-8.7249765)"><g
       inkscape:groupmode="layer"
       id="layer2"
       inkscape:label="Contour"
       transform="translate(6.755146,-32.990675)"
       sodipodi:insensitive="true"><path
         style="display:inline;fill:none;stroke:#ffffff;stroke-width:7;stroke-linecap:round;stroke-linejoin:round;stroke-dasharray:none;stroke-opacity:1;filter:url(#filter48)"
         d="m 99.652915,105.45989 c -6.350972,6.43683 -15.081914,7.29124 -24.053053,7.24366 -0.276069,-0.001 -0.631771,0.17732 -0.794489,0.40042 l -9.110746,12.49206 c -0.162718,0.2231 -0.07873,0.46317 0.186953,0.53843 11.176705,3.16602 10.19274,6.15911 8.61554,14.07513 -0.05395,0.27078 -0.140328,0.71006 -0.1937,0.98099 -1.393422,7.07358 -2.895496,14.65537 -0.313553,20.37984 0.113507,0.25166 0.313556,0.65229 0.44189,0.89679 2.462946,4.69241 6.395349,8.39724 9.210056,10.57046 0.218585,0.16877 0.576952,0.43719 0.799113,0.60119 7.198776,5.3144 13.369831,7.69779 15.085601,8.30144 0.260324,0.0916 0.686753,0.0915 0.947233,-1e-4 1.7162,-0.60383 7.88709,-2.98729 15.08556,-8.30152 0.22203,-0.16391 0.58027,-0.43223 0.79884,-0.60099 2.81471,-2.17322 6.74712,-5.87804 9.21007,-10.57046 0.12834,-0.24451 0.32842,-0.64519 0.44194,-0.8969 2.5819,-5.72448 1.07981,-13.30628 -0.31361,-20.37984 -0.0534,-0.27088 -0.13973,-0.71015 -0.19369,-0.98096 -1.5772,-7.91599 -2.56113,-10.90907 8.61561,-14.07509 0.26565,-0.0752 0.34961,-0.31531 0.18689,-0.53841 l -9.11074,-12.49206 c -0.16272,-0.2231 -0.51848,-0.40188 -0.79462,-0.40042 -8.97113,0.0476 -17.70206,-0.80686 -24.05301,-7.24375 -0.1939,-0.19652 -0.500143,-0.19647 -0.694085,9e-5 z"
         id="contour-shadow-white"
         sodipodi:nodetypes="cccsssc"
         inkscape:label="contour-shadow-white"
         inkscape:path-effect="#path-effect12;#path-effect14"
         inkscape:original-d="m 100,105.1 c -6.494089,6.8884 -15.589272,7.68239 -24.9,7.6 L 65.4,126 c 11.920958,3.28147 10.65172,6.30072 9,14.7 -1.455016,7.39901 -3.136734,15.41836 -0.19593,21.32207 2.556311,5.13183 6.919696,9.13273 9.83568,11.31837 C 92.712501,179.84098 100,182.1 100,182.1"
         transform="translate(-56.755159,-55.74884)"
         sodipodi:insensitive="true"><title
           id="title10">Contour Shadow White</title></path><path
         style="display:inline;fill:none;stroke:#f2f2f2;stroke-width:4.5;stroke-linecap:round;stroke-linejoin:round;stroke-dasharray:none;stroke-opacity:1"
         d="m 99.652915,105.45989 c -6.350972,6.43683 -15.081914,7.29124 -24.053053,7.24366 -0.276069,-0.001 -0.631771,0.17732 -0.794489,0.40042 l -9.110746,12.49206 c -0.162718,0.2231 -0.07873,0.46317 0.186953,0.53843 11.176705,3.16602 10.19274,6.15911 8.61554,14.07513 -0.05395,0.27078 -0.140328,0.71006 -0.1937,0.98099 -1.393422,7.07358 -2.895496,14.65537 -0.313553,20.37984 0.113507,0.25166 0.313556,0.65229 0.44189,0.89679 2.462946,4.69241 6.395349,8.39724 9.210056,10.57046 0.218585,0.16877 0.576952,0.43719 0.799113,0.60119 7.198776,5.3144 13.369831,7.69779 15.085601,8.30144 0.260324,0.0916 0.686753,0.0915 0.947233,-1e-4 1.7162,-0.60383 7.88709,-2.98729 15.08556,-8.30152 0.22203,-0.16391 0.58027,-0.43223 0.79884,-0.60099 2.81471,-2.17322 6.74712,-5.87804 9.21007,-10.57046 0.12834,-0.24451 0.32842,-0.64519 0.44194,-0.8969 2.5819,-5.72448 1.07981,-13.30628 -0.31361,-20.37984 -0.0534,-0.27088 -0.13973,-0.71015 -0.19369,-0.98096 -1.5772,-7.91599 -2.56113,-10.90907 8.61561,-14.07509 0.26565,-0.0752 0.34961,-0.31531 0.18689,-0.53841 l -9.11074,-12.49206 c -0.16272,-0.2231 -0.51848,-0.40188 -0.79462,-0.40042 -8.97113,0.0476 -17.70206,-0.80686 -24.05301,-7.24375 -0.1939,-0.19652 -0.500143,-0.19647 -0.694085,9e-5 z"
         id="contour-shadow-grey"
         sodipodi:nodetypes="cccsssc"
         inkscape:label="contour-shadow-grey"
         inkscape:path-effect="#path-effect8;#path-effect10"
         inkscape:original-d="m 100,105.1 c -6.494089,6.8884 -15.589272,7.68239 -24.9,7.6 L 65.4,126 c 11.920958,3.28147 10.65172,6.30072 9,14.7 -1.455016,7.39901 -3.136734,15.41836 -0.19593,21.32207 2.556311,5.13183 6.919696,9.13273 9.83568,11.31837 C 92.712501,179.84098 100,182.1 100,182.1"
         transform="translate(-56.755157,-55.720692)"
         sodipodi:insensitive="true"><title
           id="title6">Contour Shadow Grey</title></path><path
         style="display:inline;fill:none;fill-opacity:1;stroke:#b2b2b2;stroke-linecap:round;stroke-linejoin:round;stroke-opacity:1"
         d="m 99.652915,105.45989 c -6.350972,6.43683 -15.081914,7.29124 -24.053053,7.24366 -0.276069,-0.001 -0.631771,0.17732 -0.794489,0.40042 l -9.110746,12.49206 c -0.162718,0.2231 -0.07873,0.46317 0.186953,0.53843 11.176705,3.16602 10.19274,6.15911 8.61554,14.07513 -0.05395,0.27078 -0.140328,0.71006 -0.1937,0.98099 -1.393422,7.07358 -2.895496,14.65537 -0.313553,20.37984 0.113507,0.25166 0.313556,0.65229 0.44189,0.89679 2.462946,4.69241 6.395349,8.39724 9.210056,10.57046 0.218585,0.16877 0.576952,0.43719 0.799113,0.60119 7.198776,5.3144 13.369831,7.69779 15.085601,8.30144 0.260324,0.0916 0.686753,0.0915 0.947233,-1e-4 1.7162,-0.60383 7.88709,-2.98729 15.08556,-8.30152 0.22203,-0.16391 0.58027,-0.43223 0.79884,-0.60099 2.81471,-2.17322 6.74712,-5.87804 9.21007,-10.57046 0.12834,-0.24451 0.32842,-0.64519 0.44194,-0.8969 2.5819,-5.72448 1.07981,-13.30628 -0.31361,-20.37984 -0.0534,-0.27088 -0.13973,-0.71015 -0.19369,-0.98096 -1.5772,-7.91599 -2.56113,-10.90907 8.61561,-14.07509 0.26565,-0.0752 0.34961,-0.31531 0.18689,-0.53841 l -9.11074,-12.49206 c -0.16272,-0.2231 -0.51848,-0.40188 -0.79462,-0.40042 -8.97113,0.0476 -17.70206,-0.80686 -24.05301,-7.24375 -0.1939,-0.19652 -0.500143,-0.19647 -0.694085,9e-5 z"
         id="contour"
         sodipodi:nodetypes="cccsssc"
         inkscape:label="contour"
         inkscape:path-effect="#path-effect5;#path-effect6"
         inkscape:original-d="m 100,105.1 c -6.494089,6.8884 -15.589272,7.68239 -24.9,7.6 L 65.4,126 c 11.920958,3.28147 10.65172,6.30072 9,14.7 -1.455016,7.39901 -3.136734,15.41836 -0.19593,21.32207 2.556311,5.13183 6.919696,9.13273 9.83568,11.31837 C 92.712501,179.84098 100,182.1 100,182.1"
         transform="translate(-56.755152,-55.681286)"
         sodipodi:insensitive="true"><title
           id="title4">Contour</title></path></g><g
       id="layer4"
       inkscape:label="Text"
       transform="translate(66.755146,66.561411)"
       sodipodi:insensitive="true"
       inkscape:groupmode="layer"><path
         style="display:inline;fill:none;stroke:#ffffff;stroke-width:5;stroke-linecap:round;stroke-linejoin:round;stroke-dasharray:none;stroke-opacity:1;filter:url(#filter199)"
         d="M 25.2,24.8 V 47 c 0,8.619311 6.78689,15.1 14.9,15.1 C 48.21311,62.1 55,55.619311 55,47 V 24.8"
         id="contour-text-shadow-white"
         sodipodi:nodetypes="ccc"
         inkscape:path-effect="#path-effect180"
         inkscape:original-d="M 25.2,24.8 V 47 c 0,8.619311 6.78689,15.1 14.9,15.1"
         inkscape:label="contour-text-shadow-white"
         transform="translate(-56.855144,-55.011411)"
         sodipodi:insensitive="true"><title
           id="title179">Contour Text Shadow White</title></path><path
         style="display:inline;fill:none;stroke:#000000;stroke-width:1.4;stroke-linecap:round;stroke-linejoin:round;stroke-dasharray:none;stroke-opacity:1"
         d="M 25.2,24.8 V 47 c 0,8.619311 6.78689,15.1 14.9,15.1 C 48.21311,62.1 55,55.619311 55,47 V 24.8"
         id="contour-text"
         sodipodi:nodetypes="ccc"
         inkscape:path-effect="#path-effect177"
         inkscape:original-d="M 25.2,24.8 V 47 c 0,8.619311 6.78689,15.1 14.9,15.1"
         inkscape:label="contour-text"
         transform="translate(-56.855146,-55.011411)"
         sodipodi:insensitive="true"><title
           id="title177">Contour Text</title></path></g><g
       inkscape:groupmode="layer"
       id="layer3"
       inkscape:label="Cutout"
       sodipodi:insensitive="true"
       style="display:none"><path
         style="display:inline;fill:none;fill-opacity:1;stroke:#000000;stroke-width:0.1;stroke-linecap:round;stroke-linejoin:round;stroke-dasharray:none;stroke-opacity:1"
         d="m 100,101.8125 c -1.052002,1.4e-4 -2.062366,0.39951 -2.839844,1.1875 -5.301656,5.37333 -12.811605,6.24942 -21.541015,6.20313 -1.421066,-0.008 -2.798528,0.68058 -3.642579,1.83789 l -9.109375,12.49218 c -1.590477,2.18076 -0.542304,5.23145 2.060547,5.96875 2.128916,0.60306 3.651685,1.15948 4.759766,1.69922 2.879446,1.40257 2.679168,1.79816 1.378906,8.32422 -0.0538,0.27004 -0.142952,0.71452 -0.197265,0.99023 -1.393066,7.07177 -3.166142,15.63034 -0.07031,22.49415 0.143607,0.31839 0.386516,0.80451 0.533203,1.08398 2.733193,5.20729 7.151275,9.3807 10.171875,11.71289 0.238929,0.18448 0.625079,0.47547 0.859375,0.64844 7.542639,5.56825 14.059872,8.10188 16.001953,8.78515 1.106644,0.38935 2.164506,0.38949 3.271486,0 1.94313,-0.68367 8.45789,-3.21724 16,-8.78515 0.23416,-0.17287 0.62044,-0.46396 0.85937,-0.64844 3.02061,-2.33219 7.43868,-6.5056 10.17188,-11.71289 0.14668,-0.27946 0.38957,-0.76554 0.5332,-1.08398 3.09577,-6.86381 1.32276,-15.42238 -0.0703,-22.49415 -0.0543,-0.27566 -0.14346,-0.72015 -0.19727,-0.99023 -1.30026,-6.52605 -1.50053,-6.92166 1.37891,-8.32422 1.10808,-0.53974 2.63084,-1.09616 4.75977,-1.69922 2.60312,-0.73738 3.65109,-3.7879 2.06054,-5.96875 l -9.10937,-12.49218 c -0.84369,-1.15681 -2.22174,-1.84543 -3.64258,-1.83789 -8.72943,0.0463 -16.23939,-0.82977 -21.54102,-6.20313 -0.77735,-0.78788 -1.78613,-1.18764 -2.83984,-1.1875 z"
         id="cutout"
         sodipodi:nodetypes="cccsssc"
         inkscape:label="cutout"
         inkscape:path-effect="#path-effect2;#path-effect4;#path-effect7"
         inkscape:original-d="m 100,105.1 c -6.494089,6.8884 -15.589272,7.68239 -24.9,7.6 L 65.4,126 c 11.920958,3.28147 10.65172,6.30072 9,14.7 -1.455016,7.39901 -3.136734,15.41836 -0.19593,21.32207 2.556311,5.13183 6.919696,9.13273 9.83568,11.31837 C 92.712501,179.84098 100,182.1 100,182.1"
         transform="translate(-50.000006,-88.671961)"
         sodipodi:insensitive="true"><title
           id="title1">Cutout</title></path></g></g><metadata
     id="metadata199"><rdf:RDF><cc:Work
         rdf:about=""><dc:title>Ultimate Logo</dc:title><dc:date>2024-05-23</dc:date><dc:creator><cc:Agent><dc:title>Manuel Bentele</dc:title></cc:Agent></dc:creator><cc:license
           rdf:resource="http://creativecommons.org/licenses/by/4.0/" /></cc:Work><cc:License
         rdf:about="http://creativecommons.org/licenses/by/4.0/"><cc:permits
           rdf:resource="http://creativecommons.org/ns#Reproduction" /><cc:permits
           rdf:resource="http://creativecommons.org/ns#Distribution" /><cc:requires
           rdf:resource="http://creativecommons.org/ns#Notice" /><cc:requires
           rdf:resource="http://creativecommons.org/ns#Attribution" /><cc:permits
           rdf:resource="http://creativecommons.org/ns#DerivativeWorks" /></cc:License></rdf:RDF></metadata></svg>
